<svg xmlns="http://www.w3.org/2000/svg" xmlns:xlink="http://www.w3.org/1999/xlink" width="163" height="222" viewBox="0 0 163 222"><defs><path id="a" d="M0 0h163v222H0z"></path></defs><g fill="none" fill-rule="evenodd"><mask id="b" fill="#fff"><use xlink:href="#a"></use></mask><path mask="url(#b)" d="M0 0h163v222H0z"></path><path d="m324.9 77.2 15.57 27.56a20 20 0 0 1-10.45 28.58l-64.35 23.91a20 20 0 0 0 0 37.5l64.12 23.82a20 20 0 0 1 10.34 28.76l-16.04 27.73a20 20 0 0 1-29.34 5.96l-57.61-43.35a20 20 0 0 0-31.85 18.63l9.77 73.05A20 20 0 0 1 195.23 352h-33.18a20 20 0 0 1-19.87-22.26l8.43-74.12a20 20 0 0 0-32.02-18.15L58.37 283.5a20 20 0 0 1-29.53-6l-17.23-30.28a20 20 0 0 1 10.37-28.62l63.79-23.87a20 20 0 0 0 0-37.46L22.24 133.5A20 20 0 0 1 12 104.67l16.88-28.86a20 20 0 0 1 29.24-5.92l60.38 45.17a20 20 0 0 0 31.84-18.4l-8.94-74.27A20 20 0 0 1 161.25 0h33.98a20 20 0 0 1 19.83 22.65l-9.8 73.31a20 20 0 0 0 31.78 18.68L295.54 71a20 20 0 0 1 29.37 6.2Z" fill="#000" mask="url(#b)"></path></g></svg>